<svg xmlns="http://www.w3.org/2000/svg" width="167" height="39" viewBox="0 0 167 39" fill="none"><g clip-path="url(#clip0_22340_35)"><path d="M37.1516 25.6611C37.6058 25.2055 37.9316 24.6387 38.0962 24.0178C38.2607 23.3969 38.2583 22.7437 38.0891 22.124L33.9071 6.76833C33.7384 6.14816 33.4088 5.58317 32.9515 5.13017C32.4942 4.67717 31.9252 4.35212 31.3019 4.1877L15.8678 0.121204C15.2439 -0.04281 14.5877 -0.0404655 13.965 0.128002C13.3422 0.29647 12.7749 0.625139 12.3199 1.08104L1.06445 12.3685C0.610247 12.8248 0.284751 13.3923 0.12076 14.0139C-0.04323 14.6354 -0.0399221 15.2891 0.130351 15.909L0.815929 18.4401L1.10044 19.4904L4.30895 31.2544C4.48014 31.8745 4.81138 32.439 5.26967 32.8918C5.72796 33.3446 6.29731 33.6698 6.921 33.8351L18.6461 36.9263L19.7053 37.203L22.3551 37.9152C22.979 38.0787 23.6351 38.0761 24.2577 37.9077C24.8803 37.7392 25.4477 37.4108 25.903 36.9554L37.1516 25.6611ZM24.2524 29.8591L21.409 19.4409C21.2282 18.773 20.8741 18.1643 20.3821 17.6761C19.8901 17.188 19.2778 16.8377 18.6067 16.6605L8.13276 13.9039H8.12076C8.00994 13.8792 7.90773 13.8255 7.82472 13.7483C7.7417 13.6711 7.68089 13.5732 7.64856 13.4647C7.61624 13.3562 7.61357 13.2411 7.64084 13.1313C7.66811 13.0214 7.72433 12.9208 7.80368 12.8399L13.8676 6.75979C14.3225 6.30374 14.8898 5.97498 15.5126 5.8065C16.1353 5.63802 16.7916 5.63577 17.4155 5.79996L27.1438 8.3618C27.7669 8.52648 28.3355 8.85165 28.7925 9.30463C29.2495 9.75761 29.5788 10.3225 29.7473 10.9424L32.3937 20.6177C32.5639 21.2382 32.5664 21.8926 32.4008 22.5144C32.2353 23.1362 31.9076 23.7033 31.451 24.1581L25.3545 30.2775C25.2743 30.3572 25.1741 30.414 25.0643 30.4421C24.9546 30.4701 24.8393 30.4684 24.7305 30.437C24.6217 30.4056 24.5233 30.3457 24.4455 30.2636C24.3678 30.1815 24.3135 30.0802 24.2884 29.9701C24.2713 29.9325 24.2627 29.8881 24.2524 29.8591Z" fill="#004225"></path><path d="M47.9271 28.626V9.69743H55.6261C56.9376 9.67191 58.2424 9.88967 59.4739 10.3396C60.5356 10.7377 61.4382 11.4698 62.0448 12.4249C62.6619 13.3882 62.9704 14.6896 62.9704 16.3292C62.9704 17.8447 62.639 19.1096 61.9763 20.1241C61.3233 21.1332 60.3784 21.921 59.2665 22.3837C58.0283 22.8913 56.6992 23.1418 55.3604 23.1198H52.2753V28.626H47.9271ZM52.2753 19.2702H55.3604C56.3797 19.2702 57.1892 19.0203 57.7891 18.5204C58.389 18.0206 58.6884 17.2902 58.6872 16.3292C58.6872 15.4741 58.4324 14.8234 57.9228 14.3771C57.4132 13.9307 56.5762 13.7076 55.4119 13.7076H52.2753V19.2702Z" fill="#004225"></path><path d="M65.0442 28.626L72.5565 9.69743H77.1721L84.6038 28.626H79.9093L78.8621 25.685H70.786L69.713 28.626H65.0442ZM72.1571 21.7552H77.4978L74.8651 14.43L72.1571 21.7552Z" fill="#004225"></path><path d="M89.1372 28.626V9.69743H96.9716C97.8678 9.69788 98.7619 9.78309 99.6419 9.95191C100.501 10.1107 101.324 10.4231 102.071 10.8742C102.815 11.3314 103.422 11.9805 103.827 12.7529C104.266 13.5647 104.486 14.6025 104.486 15.8663C104.493 16.6798 104.347 17.4874 104.055 18.2472C103.778 18.9688 103.343 19.6199 102.782 20.1532C102.168 20.7175 101.44 21.1459 100.648 21.4102L104.967 28.6277H100.031L96.3546 22.1053H93.4837V28.6277L89.1372 28.626ZM93.4837 18.2745H96.8379C97.3027 18.2811 97.7665 18.2317 98.2194 18.1276C98.584 18.0443 98.9317 17.8999 99.2477 17.7006C99.5294 17.5185 99.7567 17.2642 99.9059 16.9645C100.067 16.621 100.154 16.2473 100.16 15.8681C100.16 15.2805 100.021 14.8353 99.7448 14.5325C99.4438 14.2152 99.0567 13.9921 98.6307 13.8903C98.1048 13.758 97.5637 13.6949 97.0213 13.7024H93.4837V18.2745Z" fill="#004225"></path><path d="M110.603 28.626V9.69743H124.604V13.7076H114.949V17.2941H123.078V21.1437H114.949V24.6466H124.604V28.6294L110.603 28.626Z" fill="#004225"></path><path d="M134.053 28.626V13.7076H128.337V9.69743H144.167V13.7076H138.398V28.626H134.053Z" fill="#004225"></path><path d="M157.368 28.8412C155.417 28.8412 153.731 28.4353 152.31 27.6235C150.907 26.8335 149.764 25.6538 149.022 24.2282C148.255 22.7765 147.87 21.0971 147.869 19.1899C147.869 17.2292 148.269 15.5214 149.069 14.0662C149.836 12.6436 150.992 11.4673 152.404 10.6743C153.835 9.86366 155.525 9.45775 157.476 9.45662C159.388 9.45662 161.056 9.85797 162.479 10.6607C163.883 11.4436 165.036 12.6065 165.805 14.015C166.605 15.4508 167.005 17.1399 167.005 19.0823C167.005 20.9906 166.611 22.6791 165.824 24.1479C165.063 25.5917 163.903 26.7886 162.482 27.5979C161.04 28.4268 159.335 28.8412 157.368 28.8412ZM157.448 24.7423C158.664 24.7423 159.648 24.4656 160.4 23.9122C161.136 23.3786 161.704 22.6461 162.036 21.8013C162.373 20.9684 162.548 20.0793 162.551 19.1814C162.549 18.5118 162.454 17.8457 162.27 17.2019C162.084 16.5487 161.784 15.9334 161.383 15.3847C160.972 14.8234 160.435 14.3655 159.815 14.0474C159.072 13.6857 158.252 13.5098 157.426 13.5351C156.227 13.5351 155.253 13.8072 154.502 14.3514C153.763 14.8804 153.19 15.6086 152.851 16.4504C152.506 17.3087 152.331 18.2258 152.337 19.1506C152.328 20.0799 152.505 21.0015 152.86 21.8611C153.206 22.702 153.788 23.4259 154.536 23.9464C155.297 24.4827 156.268 24.7508 157.448 24.7508V24.7423Z" fill="#004225"></path></g><defs><clipPath id="clip0_22340_35"><rect width="167" height="38.0297" fill="white"></rect></clipPath></defs></svg>